<svg xmlns="http://www.w3.org/2000/svg" viewBox="0 0 100 100" width="100%" height="100%">

  <defs>
    <!-- Silver / Titanium Gradient -->
    <linearGradient id="silverGrad" x1="0%" y1="0%" x2="100%" y2="100%">
      <stop offset="0%" stop-color="#FFFFFF"/>
      <stop offset="25%" stop-color="#F1F5F9"/>
      <stop offset="50%" stop-color="#CBD5E1"/>
      <stop offset="75%" stop-color="#94A3B8"/>
      <stop offset="100%" stop-color="#475569"/>
    </linearGradient>

    <!-- Silver Highlight Bevel -->
    <linearGradient id="silverBevel" x1="0%" y1="0%" x2="0%" y2="100%">
      <stop offset="0%" stop-color="#FFFFFF" stop-opacity="0.95"/>
      <stop offset="35%" stop-color="#E2E8F0" stop-opacity="0.3"/>
      <stop offset="100%" stop-color="#334155" stop-opacity="0.85"/>
    </linearGradient>

    <!-- Chiseled Star Facet Light (Facing light source) -->
    <linearGradient id="starFacetLight" x1="0%" y1="0%" x2="100%" y2="100%">
      <stop offset="0%" stop-color="#FFFFFF"/>
      <stop offset="40%" stop-color="#F8FAFC"/>
      <stop offset="100%" stop-color="#CBD5E1"/>
    </linearGradient>

    <!-- Chiseled Star Facet Shadow (Facing away) -->
    <linearGradient id="starFacetDark" x1="0%" y1="0%" x2="100%" y2="100%">
      <stop offset="0%" stop-color="#94A3B8"/>
      <stop offset="60%" stop-color="#64748B"/>
      <stop offset="100%" stop-color="#334155"/>
    </linearGradient>

    <!-- Gold Radiant Gradient -->
    <linearGradient id="goldGrad" x1="0%" y1="0%" x2="100%" y2="100%">
      <stop offset="0%" stop-color="#FFFBEB"/>
      <stop offset="20%" stop-color="#FDE047"/>
      <stop offset="50%" stop-color="#F59E0B"/>
      <stop offset="80%" stop-color="#D97706"/>
      <stop offset="100%" stop-color="#78350F"/>
    </linearGradient>

    <!-- Gold Bevel -->
    <linearGradient id="goldBevel" x1="0%" y1="0%" x2="0%" y2="100%">
      <stop offset="0%" stop-color="#FEF9C3" stop-opacity="0.95"/>
      <stop offset="50%" stop-color="#F59E0B" stop-opacity="0.35"/>
      <stop offset="100%" stop-color="#92400E" stop-opacity="0.9"/>
    </linearGradient>

    <!-- Gold Star Facet Light -->
    <linearGradient id="goldStarFacetLight" x1="0%" y1="0%" x2="100%" y2="100%">
      <stop offset="0%" stop-color="#FEF9C3"/>
      <stop offset="40%" stop-color="#FDE047"/>
      <stop offset="100%" stop-color="#F59E0B"/>
    </linearGradient>

    <!-- Gold Star Facet Shadow -->
    <linearGradient id="goldStarFacetDark" x1="0%" y1="0%" x2="100%" y2="100%">
      <stop offset="0%" stop-color="#D97706"/>
      <stop offset="60%" stop-color="#B45309"/>
      <stop offset="100%" stop-color="#78350F"/>
    </linearGradient>

    <!-- Crystalline Diamond (Cyan/Sapphire) -->
    <linearGradient id="diamondCyan" x1="0%" y1="0%" x2="100%" y2="100%">
      <stop offset="0%" stop-color="#F0F9FF"/>
      <stop offset="25%" stop-color="#7DD3FC"/>
      <stop offset="50%" stop-color="#0284C7"/>
      <stop offset="85%" stop-color="#0369A1"/>
      <stop offset="100%" stop-color="#0C4A6E"/>
    </linearGradient>

    <!-- Crystalline Diamond (Gold Topaz) -->
    <linearGradient id="diamondGold" x1="0%" y1="0%" x2="100%" y2="100%">
      <stop offset="0%" stop-color="#FFFBEB"/>
      <stop offset="25%" stop-color="#FDE047"/>
      <stop offset="50%" stop-color="#F59E0B"/>
      <stop offset="80%" stop-color="#D97706"/>
      <stop offset="100%" stop-color="#78350F"/>
    </linearGradient>

    <!-- Diamond Facet Highlights (Cyan) -->
    <linearGradient id="facetTop" x1="0%" y1="0%" x2="0%" y2="100%">
      <stop offset="0%" stop-color="#FFFFFF" stop-opacity="0.9"/>
      <stop offset="100%" stop-color="#38BDF8" stop-opacity="0.2"/>
    </linearGradient>
    <linearGradient id="facetBottom" x1="0%" y1="0%" x2="0%" y2="100%">
      <stop offset="0%" stop-color="#0284C7" stop-opacity="0.3"/>
      <stop offset="100%" stop-color="#082F49" stop-opacity="0.85"/>
    </linearGradient>

    <!-- Diamond Facet Highlights (Gold) -->
    <linearGradient id="facetGoldTop" x1="0%" y1="0%" x2="0%" y2="100%">
      <stop offset="0%" stop-color="#FFFFFF" stop-opacity="0.95"/>
      <stop offset="100%" stop-color="#FDE047" stop-opacity="0.25"/>
    </linearGradient>
    <linearGradient id="facetGoldBottom" x1="0%" y1="0%" x2="0%" y2="100%">
      <stop offset="0%" stop-color="#B45309" stop-opacity="0.35"/>
      <stop offset="100%" stop-color="#451A03" stop-opacity="0.9"/>
    </linearGradient>

    <!-- Crimson Military Plate Gradient (Gambar 3 Reference) -->
    <radialGradient id="plateCrimson" cx="50%" cy="50%" r="65%">
      <stop offset="0%" stop-color="#6B1D22"/>
      <stop offset="50%" stop-color="#4A1216"/>
      <stop offset="85%" stop-color="#2D0A0C"/>
      <stop offset="100%" stop-color="#1A0406"/>
    </radialGradient>

    <!-- Drop Shadow Filter -->
    <filter id="badgeShadow" x="-20%" y="-20%" width="140%" height="140%">
      <feDropShadow dx="0" dy="2.5" stdDeviation="2.5" flood-color="#000000" flood-opacity="0.45"/>
    </filter>

    <!-- Gold Glow Filter -->
    <filter id="goldGlow" x="-30%" y="-30%" width="160%" height="160%">
      <feDropShadow dx="0" dy="1" stdDeviation="3.5" flood-color="#F59E0B" flood-opacity="0.5"/>
    </filter>
  
    <!-- Plate Grey (Tengkorak & Strip) -->
    <radialGradient id="plateGrey" cx="50%" cy="50%" r="65%">
      <stop offset="0%" stop-color="#475569"/>
      <stop offset="50%" stop-color="#334155"/>
      <stop offset="85%" stop-color="#1E293B"/>
      <stop offset="100%" stop-color="#0F172A"/>
    </radialGradient>

    <!-- Plate Brown Leather (V / Sersan) -->
    <radialGradient id="plateLeather" cx="50%" cy="50%" r="65%">
      <stop offset="0%" stop-color="#854D0E"/>
      <stop offset="45%" stop-color="#713F12"/>
      <stop offset="85%" stop-color="#451A03"/>
      <stop offset="100%" stop-color="#260E02"/>
    </radialGradient>

    <!-- Plate Blue (Diamond) -->
    <radialGradient id="plateBlue" cx="50%" cy="50%" r="65%">
      <stop offset="0%" stop-color="#0284C7"/>
      <stop offset="45%" stop-color="#0369A1"/>
      <stop offset="85%" stop-color="#0C4A6E"/>
      <stop offset="100%" stop-color="#082F49"/>
    </radialGradient>

    <!-- Plate Green (Major) -->
    <radialGradient id="plateGreen" cx="50%" cy="50%" r="65%">
      <stop offset="0%" stop-color="#16A34A"/>
      <stop offset="45%" stop-color="#15803D"/>
      <stop offset="85%" stop-color="#14532D"/>
      <stop offset="100%" stop-color="#052E16"/>
    </radialGradient>

    <!-- Plate Crimson Red (Bintang) -->
    <radialGradient id="plateCrimson" cx="50%" cy="50%" r="65%">
      <stop offset="0%" stop-color="#6B1D22"/>
      <stop offset="50%" stop-color="#4A1216"/>
      <stop offset="85%" stop-color="#2D0A0C"/>
      <stop offset="100%" stop-color="#1A0406"/>
    </radialGradient>

    <!-- Plate Black Obsidian (GM) -->
    <radialGradient id="plateBlack" cx="50%" cy="50%" r="65%">
      <stop offset="0%" stop-color="#181A22"/>
      <stop offset="50%" stop-color="#0D0E14"/>
      <stop offset="85%" stop-color="#05060A"/>
      <stop offset="100%" stop-color="#000000"/>
    </radialGradient>

    <!-- Silver Facet Gradients for Diamond Replacement -->
    <linearGradient id="diamondSilver" x1="0%" y1="0%" x2="100%" y2="100%">
      <stop offset="0%" stop-color="#FFFFFF"/>
      <stop offset="25%" stop-color="#F1F5F9"/>
      <stop offset="50%" stop-color="#CBD5E1"/>
      <stop offset="75%" stop-color="#94A3B8"/>
      <stop offset="100%" stop-color="#475569"/>
    </linearGradient>

    <linearGradient id="facetSilverTop" x1="0%" y1="0%" x2="0%" y2="100%">
      <stop offset="0%" stop-color="#FFFFFF" stop-opacity="0.95"/>
      <stop offset="100%" stop-color="#CBD5E1" stop-opacity="0.3"/>
    </linearGradient>

    <linearGradient id="facetSilverBottom" x1="0%" y1="0%" x2="0%" y2="100%">
      <stop offset="0%" stop-color="#94A3B8" stop-opacity="0.4"/>
      <stop offset="100%" stop-color="#334155" stop-opacity="0.85"/>
    </linearGradient>

  </defs>

  <g filter="url(#badgeShadow)">

    <!-- Tactical Plate -->
    <rect x="8" y="8" width="84" height="84" rx="14" fill="url(#plateCrimson)" stroke="#334155" stroke-width="2"/>
    <!-- Subtle Inner Metallic Rim -->
    <rect x="10" y="10" width="80" height="80" rx="12" fill="none" stroke="url(#silverBevel)" stroke-width="1" opacity="0.4"/>
  

    
    
  
    
    <g id="star5">
      <polygon points="28,28 24.1,22.7 28.0,11.5" fill="url(#starFacetLight)" stroke="#334155" stroke-width="0.6"/><polygon points="28,28 28.0,11.5 31.9,22.7" fill="url(#starFacetDark)" stroke="#334155" stroke-width="0.6"/><polygon points="28,28 31.9,22.7 43.7,22.9" fill="url(#starFacetLight)" stroke="#334155" stroke-width="0.6"/><polygon points="28,28 43.7,22.9 34.3,30.0" fill="url(#starFacetDark)" stroke="#334155" stroke-width="0.6"/><polygon points="28,28 34.3,30.0 37.7,41.3" fill="url(#starFacetLight)" stroke="#334155" stroke-width="0.6"/><polygon points="28,28 37.7,41.3 28.0,34.6" fill="url(#starFacetDark)" stroke="#334155" stroke-width="0.6"/><polygon points="28,28 28.0,34.6 18.3,41.3" fill="url(#starFacetLight)" stroke="#334155" stroke-width="0.6"/><polygon points="28,28 18.3,41.3 21.7,30.0" fill="url(#starFacetDark)" stroke="#334155" stroke-width="0.6"/><polygon points="28,28 21.7,30.0 12.3,22.9" fill="url(#starFacetLight)" stroke="#334155" stroke-width="0.6"/><polygon points="28,28 12.3,22.9 24.1,22.7" fill="url(#starFacetDark)" stroke="#334155" stroke-width="0.6"/>
      <line x1="28" y1="28" x2="28.0" y2="11.5" stroke="#FFFFFF" stroke-width="0.85" opacity="0.9"/><line x1="28" y1="28" x2="43.7" y2="22.9" stroke="#FFFFFF" stroke-width="0.85" opacity="0.9"/><line x1="28" y1="28" x2="37.7" y2="41.3" stroke="#FFFFFF" stroke-width="0.85" opacity="0.9"/><line x1="28" y1="28" x2="18.3" y2="41.3" stroke="#FFFFFF" stroke-width="0.85" opacity="0.9"/><line x1="28" y1="28" x2="12.3" y2="22.9" stroke="#FFFFFF" stroke-width="0.85" opacity="0.9"/>
      <circle cx="28" cy="28" r="1.5" fill="#FFFFFF" opacity="0.95"/>
    </g>
  
    <g id="star5">
      <polygon points="72,28 68.1,22.7 72.0,11.5" fill="url(#starFacetLight)" stroke="#334155" stroke-width="0.6"/><polygon points="72,28 72.0,11.5 75.9,22.7" fill="url(#starFacetDark)" stroke="#334155" stroke-width="0.6"/><polygon points="72,28 75.9,22.7 87.7,22.9" fill="url(#starFacetLight)" stroke="#334155" stroke-width="0.6"/><polygon points="72,28 87.7,22.9 78.3,30.0" fill="url(#starFacetDark)" stroke="#334155" stroke-width="0.6"/><polygon points="72,28 78.3,30.0 81.7,41.3" fill="url(#starFacetLight)" stroke="#334155" stroke-width="0.6"/><polygon points="72,28 81.7,41.3 72.0,34.6" fill="url(#starFacetDark)" stroke="#334155" stroke-width="0.6"/><polygon points="72,28 72.0,34.6 62.3,41.3" fill="url(#starFacetLight)" stroke="#334155" stroke-width="0.6"/><polygon points="72,28 62.3,41.3 65.7,30.0" fill="url(#starFacetDark)" stroke="#334155" stroke-width="0.6"/><polygon points="72,28 65.7,30.0 56.3,22.9" fill="url(#starFacetLight)" stroke="#334155" stroke-width="0.6"/><polygon points="72,28 56.3,22.9 68.1,22.7" fill="url(#starFacetDark)" stroke="#334155" stroke-width="0.6"/>
      <line x1="72" y1="28" x2="72.0" y2="11.5" stroke="#FFFFFF" stroke-width="0.85" opacity="0.9"/><line x1="72" y1="28" x2="87.7" y2="22.9" stroke="#FFFFFF" stroke-width="0.85" opacity="0.9"/><line x1="72" y1="28" x2="81.7" y2="41.3" stroke="#FFFFFF" stroke-width="0.85" opacity="0.9"/><line x1="72" y1="28" x2="62.3" y2="41.3" stroke="#FFFFFF" stroke-width="0.85" opacity="0.9"/><line x1="72" y1="28" x2="56.3" y2="22.9" stroke="#FFFFFF" stroke-width="0.85" opacity="0.9"/>
      <circle cx="72" cy="28" r="1.5" fill="#FFFFFF" opacity="0.95"/>
    </g>
  
    <g id="star5">
      <polygon points="50,50 45.9,44.3 50.0,32.5" fill="url(#starFacetLight)" stroke="#334155" stroke-width="0.6"/><polygon points="50,50 50.0,32.5 54.1,44.3" fill="url(#starFacetDark)" stroke="#334155" stroke-width="0.6"/><polygon points="50,50 54.1,44.3 66.6,44.6" fill="url(#starFacetLight)" stroke="#334155" stroke-width="0.6"/><polygon points="50,50 66.6,44.6 56.7,52.2" fill="url(#starFacetDark)" stroke="#334155" stroke-width="0.6"/><polygon points="50,50 56.7,52.2 60.3,64.2" fill="url(#starFacetLight)" stroke="#334155" stroke-width="0.6"/><polygon points="50,50 60.3,64.2 50.0,57.0" fill="url(#starFacetDark)" stroke="#334155" stroke-width="0.6"/><polygon points="50,50 50.0,57.0 39.7,64.2" fill="url(#starFacetLight)" stroke="#334155" stroke-width="0.6"/><polygon points="50,50 39.7,64.2 43.3,52.2" fill="url(#starFacetDark)" stroke="#334155" stroke-width="0.6"/><polygon points="50,50 43.3,52.2 33.4,44.6" fill="url(#starFacetLight)" stroke="#334155" stroke-width="0.6"/><polygon points="50,50 33.4,44.6 45.9,44.3" fill="url(#starFacetDark)" stroke="#334155" stroke-width="0.6"/>
      <line x1="50" y1="50" x2="50.0" y2="32.5" stroke="#FFFFFF" stroke-width="0.85" opacity="0.9"/><line x1="50" y1="50" x2="66.6" y2="44.6" stroke="#FFFFFF" stroke-width="0.85" opacity="0.9"/><line x1="50" y1="50" x2="60.3" y2="64.2" stroke="#FFFFFF" stroke-width="0.85" opacity="0.9"/><line x1="50" y1="50" x2="39.7" y2="64.2" stroke="#FFFFFF" stroke-width="0.85" opacity="0.9"/><line x1="50" y1="50" x2="33.4" y2="44.6" stroke="#FFFFFF" stroke-width="0.85" opacity="0.9"/>
      <circle cx="50" cy="50" r="1.6" fill="#FFFFFF" opacity="0.95"/>
    </g>
  
    <g id="star5">
      <polygon points="27,72 23.1,66.7 27.0,55.5" fill="url(#starFacetLight)" stroke="#334155" stroke-width="0.6"/><polygon points="27,72 27.0,55.5 30.9,66.7" fill="url(#starFacetDark)" stroke="#334155" stroke-width="0.6"/><polygon points="27,72 30.9,66.7 42.7,66.9" fill="url(#starFacetLight)" stroke="#334155" stroke-width="0.6"/><polygon points="27,72 42.7,66.9 33.3,74.0" fill="url(#starFacetDark)" stroke="#334155" stroke-width="0.6"/><polygon points="27,72 33.3,74.0 36.7,85.3" fill="url(#starFacetLight)" stroke="#334155" stroke-width="0.6"/><polygon points="27,72 36.7,85.3 27.0,78.6" fill="url(#starFacetDark)" stroke="#334155" stroke-width="0.6"/><polygon points="27,72 27.0,78.6 17.3,85.3" fill="url(#starFacetLight)" stroke="#334155" stroke-width="0.6"/><polygon points="27,72 17.3,85.3 20.7,74.0" fill="url(#starFacetDark)" stroke="#334155" stroke-width="0.6"/><polygon points="27,72 20.7,74.0 11.3,66.9" fill="url(#starFacetLight)" stroke="#334155" stroke-width="0.6"/><polygon points="27,72 11.3,66.9 23.1,66.7" fill="url(#starFacetDark)" stroke="#334155" stroke-width="0.6"/>
      <line x1="27" y1="72" x2="27.0" y2="55.5" stroke="#FFFFFF" stroke-width="0.85" opacity="0.9"/><line x1="27" y1="72" x2="42.7" y2="66.9" stroke="#FFFFFF" stroke-width="0.85" opacity="0.9"/><line x1="27" y1="72" x2="36.7" y2="85.3" stroke="#FFFFFF" stroke-width="0.85" opacity="0.9"/><line x1="27" y1="72" x2="17.3" y2="85.3" stroke="#FFFFFF" stroke-width="0.85" opacity="0.9"/><line x1="27" y1="72" x2="11.3" y2="66.9" stroke="#FFFFFF" stroke-width="0.85" opacity="0.9"/>
      <circle cx="27" cy="72" r="1.5" fill="#FFFFFF" opacity="0.95"/>
    </g>
  
    <g id="star5">
      <polygon points="73,72 69.1,66.7 73.0,55.5" fill="url(#starFacetLight)" stroke="#334155" stroke-width="0.6"/><polygon points="73,72 73.0,55.5 76.9,66.7" fill="url(#starFacetDark)" stroke="#334155" stroke-width="0.6"/><polygon points="73,72 76.9,66.7 88.7,66.9" fill="url(#starFacetLight)" stroke="#334155" stroke-width="0.6"/><polygon points="73,72 88.7,66.9 79.3,74.0" fill="url(#starFacetDark)" stroke="#334155" stroke-width="0.6"/><polygon points="73,72 79.3,74.0 82.7,85.3" fill="url(#starFacetLight)" stroke="#334155" stroke-width="0.6"/><polygon points="73,72 82.7,85.3 73.0,78.6" fill="url(#starFacetDark)" stroke="#334155" stroke-width="0.6"/><polygon points="73,72 73.0,78.6 63.3,85.3" fill="url(#starFacetLight)" stroke="#334155" stroke-width="0.6"/><polygon points="73,72 63.3,85.3 66.7,74.0" fill="url(#starFacetDark)" stroke="#334155" stroke-width="0.6"/><polygon points="73,72 66.7,74.0 57.3,66.9" fill="url(#starFacetLight)" stroke="#334155" stroke-width="0.6"/><polygon points="73,72 57.3,66.9 69.1,66.7" fill="url(#starFacetDark)" stroke="#334155" stroke-width="0.6"/>
      <line x1="73" y1="72" x2="73.0" y2="55.5" stroke="#FFFFFF" stroke-width="0.85" opacity="0.9"/><line x1="73" y1="72" x2="88.7" y2="66.9" stroke="#FFFFFF" stroke-width="0.85" opacity="0.9"/><line x1="73" y1="72" x2="82.7" y2="85.3" stroke="#FFFFFF" stroke-width="0.85" opacity="0.9"/><line x1="73" y1="72" x2="63.3" y2="85.3" stroke="#FFFFFF" stroke-width="0.85" opacity="0.9"/><line x1="73" y1="72" x2="57.3" y2="66.9" stroke="#FFFFFF" stroke-width="0.85" opacity="0.9"/>
      <circle cx="73" cy="72" r="1.5" fill="#FFFFFF" opacity="0.95"/>
    </g>
  
  
  </g>
</svg>